<svg xmlns:xlink="http://www.w3.org/1999/xlink" xmlns="http://www.w3.org/2000/svg" id="Capa_1" height="60" viewBox="0 0 512 512" width="60"><g fill="#017BFE"><path d="m512 256c0 141.385-114.615 256-256 256s-256-114.615-256-256 114.615-256 256-256 256 114.615 256 256z" fill="#FF2EA6"></path><path d="m451.522 256c0 107.983-87.538 195.521-195.521 195.521s-195.522-87.538-195.522-195.521 87.538-195.521 195.521-195.521 195.522 87.538 195.522 195.521z" fill="#FF50B5"></path><path d="m168.754 199.974c-1.664 1.711-2.429 4.104-2.067 6.463l8.541 55.591c.935 6.084-5.363 10.704-10.886 7.987l-50.465-24.832c-2.142-1.054-4.654-1.042-6.786.032l-50.23 25.301c-5.498 2.77-11.838-1.792-10.96-7.885l8.022-55.668c.34-2.362-.447-4.748-2.127-6.444l-39.585-39.953c-4.333-4.373-1.954-11.812 4.112-12.86l55.422-9.573c2.352-.406 4.378-1.893 5.471-4.014l25.766-49.994c2.82-5.472 10.63-5.508 13.501-.063l26.231 49.751c1.113 2.112 3.153 3.579 5.509 3.963l55.509 9.056c6.075.991 8.523 8.408 4.232 12.821z" fill="#FF9F22"></path><path d="m219.232 148.824c-2.064-6.256-7.387-10.801-13.889-11.862l-54.337-8.864-25.677-48.7c-3.059-5.803-9.023-9.398-15.578-9.398h-.085c-6.588.031-12.556 3.688-15.572 9.544l-25.222 48.938-54.251 9.371c-6.492 1.122-11.771 5.716-13.778 11.992-2.006 6.275-.372 13.08 4.265 17.761l38.749 39.108-7.852 54.492c-.94 6.521 1.799 12.962 7.146 16.81 3.063 2.203 6.658 3.324 10.277 3.324 2.702 0 5.417-.625 7.932-1.892l49.169-24.768 49.397 24.307c5.912 2.91 12.883 2.295 18.195-1.602s7.991-10.363 6.99-16.875l-8.36-54.416 38.381-39.469c4.595-4.724 6.165-11.544 4.1-17.801zm-57.648 44.179c-3.828 3.938-5.615 9.529-4.78 14.953l7.846 51.065-46.356-22.81c-4.928-2.424-10.795-2.396-15.7.073l-46.14 23.241 7.369-51.137c.781-5.434-1.059-11.006-4.922-14.907l-36.362-36.7 50.91-8.794c5.409-.935 10.141-4.406 12.657-9.287l23.668-45.923 24.096 45.7c2.561 4.857 7.324 8.285 12.743 9.169l50.99 8.318z" fill="#FFC14F"></path><path d="m82.829 124.018c-5.125-2.411-7.227-8.595-4.632-13.63l15.896-30.844c3.017-5.856 8.984-9.513 15.572-9.544h.085c6.534 0 12.53 3.617 15.577 9.397l25.678 48.701 29.86 4.871c6.556 1.07 10.266 8.116 7.438 14.127-1.901 4.041-6.251 6.331-10.659 5.612l-31.034-5.063c-5.419-.884-10.183-4.312-12.743-9.169l-24.096-45.7-13.798 26.773c-2.463 4.786-8.274 6.76-13.144 4.469z" fill="#FFCD71"></path><path d="m359.092 106.463c-1.248 1.284-1.823 3.079-1.551 4.849l6.407 41.702c.701 4.564-4.023 8.03-8.166 5.992l-37.856-18.627c-1.606-.791-3.491-.782-5.09.023l-37.681 18.98c-4.124 2.077-8.88-1.345-8.221-5.915l6.018-41.76c.255-1.772-.335-3.562-1.596-4.834l-29.696-29.972c-3.25-3.28-1.466-8.861 3.085-9.647l41.575-7.181c1.765-.305 3.284-1.42 4.104-3.012l19.328-37.503c2.115-4.104 7.974-4.132 10.128-.047l19.677 37.322c.835 1.584 2.365 2.685 4.132 2.973l41.641 6.793c4.557.744 6.394 6.307 3.175 9.618z" fill="#FFF04A"></path><path d="m399.33 67.31c-1.842-5.581-6.589-9.635-12.389-10.582l-39.534-6.449-18.682-35.432c-2.729-5.177-8.048-8.384-13.896-8.384-.025 0-.05 0-.075 0-5.877.027-11.2 3.29-13.892 8.513l-18.35 35.605-39.47 6.819c-5.792 1-10.501 5.1-12.29 10.698-1.79 5.598-.332 11.668 3.804 15.841l28.192 28.455-5.713 39.647c-.838 5.816 1.604 11.562 6.375 14.994 2.732 1.965 5.94 2.965 9.169 2.965 2.41 0 4.831-.557 7.075-1.687l35.772-18.02 35.942 17.685c5.271 2.595 11.49 2.046 16.229-1.43 4.738-3.476 7.127-9.244 6.234-15.053l-6.083-39.591 27.926-28.717h.001c4.097-4.213 5.497-10.297 3.655-15.877zm-47.405 32.18c-3.418 3.512-5.013 8.5-4.268 13.341l5.157 33.57-30.471-14.994c-4.396-2.164-9.632-2.14-14.008.063l-30.332 15.279 4.844-33.614c.7-4.85-.941-9.822-4.39-13.301l-23.904-24.127 33.467-5.781c4.826-.833 9.048-3.93 11.292-8.284l15.56-30.19 15.839 30.042c2.285 4.333 6.535 7.391 11.369 8.179l33.521 5.468z" fill="#FFFAC1"></path><path d="m328.494 63.101v55.362c0 4.142-3.357 7.5-7.5 7.5s-7.5-3.358-7.5-7.5v-47.862h-4.333c-4.143 0-7.5-3.358-7.5-7.5s3.357-7.5 7.5-7.5h11.833c4.143 0 7.5 3.358 7.5 7.5z" fill="#FFB52D"></path><path d="m89.562 161.13v55.362c0 4.142-3.357 7.5-7.5 7.5s-7.5-3.358-7.5-7.5v-47.862h-4.333c-4.143 0-7.5-3.358-7.5-7.5s3.357-7.5 7.5-7.5h11.833c4.142 0 7.5 3.358 7.5 7.5zm60.188 14.88v25.603c0 12.963-10.547 23.51-23.51 23.51s-23.509-10.547-23.509-23.51v-25.603c0-12.963 10.546-23.51 23.509-23.51s23.51 10.546 23.51 23.51zm-15 0c0-4.692-3.817-8.51-8.51-8.51-4.691 0-8.509 3.817-8.509 8.51v25.603c0 4.692 3.817 8.51 8.509 8.51s8.51-3.817 8.51-8.51z" fill="#FFFAC1"></path><path d="m398.799 395.83c-2.335 2.401-3.409 5.759-2.9 9.07l11.986 78.009c1.312 8.538-7.525 15.021-15.275 11.208l-70.815-34.845c-3.005-1.479-6.531-1.462-9.522.044l-70.487 35.505c-7.714 3.886-16.612-2.515-15.379-11.064l11.257-78.117c.478-3.315-.627-6.663-2.985-9.042l-55.549-56.065c-6.08-6.136-2.741-16.575 5.771-18.045l77.772-13.434c3.301-.57 6.143-2.656 7.678-5.633l36.156-70.155c3.957-7.678 14.917-7.729 18.946-.089l36.809 69.814c1.562 2.963 4.424 5.022 7.73 5.562l77.894 12.707c8.525 1.391 11.961 11.798 5.939 17.991z" fill="#FFB52D"></path><path d="m453.822 339.248-55.023 56.582c-2.335 2.401-3.409 5.759-2.9 9.07l2.044 13.302c-62.162-11.677-113.947-52.771-140.346-108.274l5.074-.876c3.301-.57 6.143-2.656 7.678-5.633l36.156-70.155c3.957-7.678 14.917-7.729 18.946-.089l36.809 69.814c1.562 2.963 4.424 5.022 7.73 5.562l77.894 12.707c8.524 1.39 11.96 11.797 5.938 17.99z" fill="#FFC14F"></path><path d="m471.524 323.429c-3.131-9.486-11.201-16.379-21.061-17.988l-75.27-12.279-35.568-67.461c-4.639-8.8-13.682-14.252-23.624-14.252h-.126c-9.99.046-19.039 5.592-23.615 14.473l-34.938 67.791-75.15 12.981c-9.844 1.7-17.85 8.668-20.893 18.183-3.042 9.516-.564 19.835 6.467 26.931l53.676 54.177-10.877 75.484c-1.425 9.888 2.727 19.655 10.837 25.489 4.643 3.34 10.096 5.042 15.584 5.042 4.097 0 8.214-.948 12.028-2.869l68.111-34.309 68.429 33.671c8.966 4.41 19.537 3.478 27.591-2.43 8.055-5.909 12.116-15.714 10.599-25.589l-11.582-75.38 53.169-54.675c6.964-7.162 9.345-17.504 6.213-26.99zm-84.214 61.23c-5.805 5.971-8.514 14.447-7.25 22.674l10.431 67.881-61.623-30.321c-7.471-3.675-16.368-3.635-23.806.111l-61.335 30.896 9.795-67.975c1.187-8.24-1.603-16.691-7.463-22.606l-48.336-48.787 67.675-11.689c8.204-1.417 15.38-6.682 19.194-14.083l31.462-61.047 32.03 60.749c3.883 7.365 11.106 12.563 19.325 13.904l67.782 11.058z" fill="#FFF04A"></path><path d="m276.008 290.991c-7.469-4.248-10.258-13.632-6.321-21.27l22.573-43.799c4.576-8.88 13.625-14.426 23.615-14.473h.126c9.941 0 18.984 5.452 23.624 14.252l35.568 67.461 38.17 6.227c11.02 1.798 16.869 14.032 11.349 23.738-3.312 5.823-9.897 8.971-16.509 7.893l-40.795-6.655c-8.219-1.34-15.442-6.539-19.325-13.904l-32.03-60.749-17.879 34.691c-4.172 8.097-14.247 11.091-22.166 6.588z" fill="#FFF36C"></path><path d="m270.774 344.354v55.362c0 4.142-3.357 7.5-7.5 7.5s-7.5-3.358-7.5-7.5v-47.862h-4.333c-4.143 0-7.5-3.358-7.5-7.5s3.357-7.5 7.5-7.5h11.833c4.142 0 7.5 3.358 7.5 7.5zm60.188 14.88v25.604c0 12.963-10.546 23.509-23.509 23.509s-23.51-10.546-23.51-23.509v-25.604c0-12.963 10.547-23.509 23.51-23.509s23.509 10.546 23.509 23.509zm-15 0c0-4.692-3.817-8.509-8.509-8.509s-8.51 3.817-8.51 8.509v25.604c0 4.692 3.817 8.509 8.51 8.509 4.691 0 8.509-3.817 8.509-8.509zm72.979 0v25.604c0 12.963-10.547 23.509-23.51 23.509s-23.509-10.546-23.509-23.509v-25.604c0-12.963 10.546-23.509 23.509-23.509s23.51 10.546 23.51 23.509zm-15 0c0-4.692-3.817-8.509-8.51-8.509-4.691 0-8.509 3.817-8.509 8.509v25.604c0 4.692 3.817 8.509 8.509 8.509s8.51-3.817 8.51-8.509z" fill="#DD7D00"></path><path d="m154.176 421.63c.456 1.557-.99 3.002-2.546 2.546l-12.706-3.722c-.377-.11-.777-.11-1.154 0l-12.707 3.722c-1.557.456-3.002-.99-2.546-2.546l3.722-12.707c.11-.376.11-.777 0-1.154l-3.722-12.707c-.456-1.557.99-3.002 2.546-2.546l12.707 3.722c.377.11.777.11 1.154 0l12.706-3.722c1.557-.456 3.002.99 2.546 2.546l-3.722 12.707c-.11.377-.11.777 0 1.154z" fill="#FFF36C"></path><path d="m450.075 225.329c1.521 3.041-1.706 6.267-4.746 4.746l-18.944-9.472c-.996-.498-2.168-.498-3.164 0l-18.944 9.472c-3.041 1.521-6.267-1.705-4.746-4.746l9.472-18.944c.498-.996.498-2.168 0-3.164l-9.472-18.944c-1.521-3.041 1.706-6.267 4.746-4.747l18.944 9.472c.996.498 2.168.498 3.164 0l18.944-9.472c3.041-1.52 6.267 1.706 4.746 4.747l-9.472 18.944c-.498.996-.498 2.168 0 3.164z" fill="#FFC14F"></path><path d="m434.176 311.63c.456 1.557-.99 3.002-2.546 2.546l-12.706-3.722c-.377-.11-.777-.11-1.154 0l-12.707 3.722c-1.557.456-3.002-.99-2.546-2.546l3.722-12.707c.11-.376.11-.777 0-1.154l-3.722-12.707c-.456-1.557.99-3.002 2.546-2.546l12.707 3.722c.377.11.777.11 1.154 0l12.706-3.722c1.557-.456 3.002.99 2.546 2.546l-3.722 12.707c-.11.377-.11.777 0 1.154z" fill="#FFF5F5"></path></g></svg>