<svg xmlns:xlink="http://www.w3.org/1999/xlink" xmlns="http://www.w3.org/2000/svg" id="Capa_1" height="60" viewBox="0 0 512 512" width="60"><g fill="#017BFE"><path d="m511.996 254.609c.546 102.764-59.461 191.572-146.413 232.817-5.389 2.556-11.273 3.907-17.238 3.907h-184.648c-5.988 0-11.896-1.352-17.306-3.919-86.546-41.065-146.391-129.251-146.391-231.414 0-141.266 114.422-255.807 255.644-256 111.373-.152 206.729 71.543 241.898 171.245.288.816-3.322 2.56-3.042 3.38 4.104 12.025 5.843 22.503 8.125 35.25.251 1.399 5.875 3.824 6.102 5.231 2.082 12.876 3.198 26.069 3.269 39.503z" fill="#2CB3CD"></path><path d="m443.168 242.889c0 101.114-81.969 183.084-183.084 183.084s-183.084-81.969-183.084-183.084 81.969-183.084 183.084-183.084 183.084 81.97 183.084 183.084z" fill="#44BFD7"></path><path d="m233.006 400.107-38.565-.398c-1.489-.015-2.924.562-3.988 1.604l-27.551 26.989c-2.216 2.171-5.772 2.134-7.942-.082l-26.989-27.551c-1.042-1.064-2.465-1.67-3.954-1.686l-38.565-.398c-3.102-.032-5.59-2.572-5.558-5.674l.398-38.565c.015-1.489-.562-2.924-1.604-3.988l-26.989-27.551c-2.171-2.216-2.134-5.772.082-7.942l27.551-26.989c1.064-1.042 1.67-2.465 1.686-3.954l.398-38.565c.032-3.102 2.572-5.59 5.674-5.558l38.565.398c1.489.015 2.924-.562 3.988-1.604l27.551-26.989c2.216-2.171 5.772-2.134 7.942.082l26.989 27.551c1.042 1.064 2.465 1.67 3.954 1.686l38.565.398c3.102.032 5.59 2.572 5.558 5.674l-.398 38.565c-.015 1.489.562 2.924 1.604 3.988l26.989 27.551c2.171 2.216 2.134 5.772-.082 7.942l-27.551 26.989c-1.064 1.042-1.67 2.465-1.686 3.954l-.398 38.565c-.032 3.101-2.573 5.59-5.674 5.558z" fill="#7CD2E3"></path><path d="m209.593 382.146-23.107-.238c-.892-.009-1.752.336-2.389.961l-16.507 16.17c-1.328 1.301-3.458 1.279-4.759-.049l-16.17-16.507c-.625-.638-1.477-1.001-2.369-1.01l-23.107-.238c-1.858-.019-3.349-1.541-3.33-3.4l.238-23.107c.009-.892-.336-1.752-.961-2.389l-16.17-16.507c-1.3-1.328-1.279-3.458.049-4.759l16.507-16.17c.638-.625 1.001-1.477 1.01-2.369l.238-23.107c.019-1.858 1.541-3.349 3.4-3.33l23.107.238c.892.009 1.752-.336 2.389-.961l16.507-16.17c1.328-1.3 3.458-1.279 4.759.049l16.17 16.507c.625.638 1.477 1.001 2.369 1.01l23.107.238c1.858.019 3.349 1.541 3.33 3.4l-.238 23.107c-.009.892.336 1.752.961 2.389l16.17 16.507c1.301 1.328 1.279 3.458-.049 4.759l-16.507 16.17c-.638.625-1.001 1.477-1.01 2.369l-.238 23.107c-.02 1.858-1.542 3.349-3.4 3.33z" fill="#C2EAF2"></path><path d="m331.415 111c0 61.304-49.696 111-111 111s-111-49.696-111-111 49.696-111 111-111 111 49.696 111 111z" fill="#FFC14F"></path><path d="m315.415 87c0 39.212-31.788 71-71 71s-71-31.788-71-71 31.788-71 71-71 71 31.788 71 71z" fill="#FFF04A"></path><path d="m220.415 17.5c-51.556 0-93.5 41.944-93.5 93.5s41.944 93.5 93.5 93.5 93.5-41.944 93.5-93.5-41.944-93.5-93.5-93.5zm0 172c-43.285 0-78.5-35.215-78.5-78.5s35.215-78.5 78.5-78.5 78.5 35.215 78.5 78.5-35.215 78.5-78.5 78.5zm12.248-86.114c-1.758-.621-3.552-1.269-5.345-1.941v-29.898c2.118.62 3.804 1.466 4.987 2.183 1.039.629 3.211 2.272 4.422 3.238 3.238 2.581 7.957 2.053 10.54-1.185s2.054-7.955-1.183-10.539c-.612-.488-3.778-2.995-6.013-4.348-2.769-1.675-7.137-3.774-12.754-4.726v-5.74c0-4.143-3.358-7.5-7.5-7.5s-7.5 3.357-7.5 7.5v6.289c-.8.19-1.611.407-2.434.655-9.843 2.966-17.195 11.38-19.189 21.959-1.823 9.673 1.294 19.016 8.135 24.382 3.454 2.709 7.707 5.19 13.488 7.794v38.578c-4.746-.459-7.973-1.78-13.298-5.263-3.467-2.267-8.115-1.297-10.382 2.171-2.268 3.467-1.295 8.114 2.171 10.382 8.4 5.495 14.216 7.258 21.509 7.756v6.436c0 4.143 3.358 7.5 7.5 7.5s7.5-3.357 7.5-7.5v-7.106c14.396-3.246 23.635-15.37 25.644-27.319 2.563-15.243-5.405-28.494-20.298-33.758zm-24.577-11.474c-2.381-1.867-3.422-5.715-2.652-9.801.652-3.463 2.795-7.57 6.883-9.622v22.23c-1.572-.906-3-1.842-4.231-2.807zm30.083 42.745c-.93 5.533-4.613 11.396-10.852 14.107v-31.358c.115.041.23.082.346.123 11.724 4.143 11.005 14.158 10.506 17.128z" fill="#FF9100"></path><path d="m430.147 238.384 6.353 11.616c.188.344.471.627.816.816l11.616 6.353c1.423.778 1.423 2.823 0 3.601l-11.616 6.353c-.344.188-.627.471-.816.816l-6.353 11.616c-.778 1.423-2.823 1.423-3.601 0l-6.353-11.616c-.188-.344-.471-.627-.816-.816l-11.616-6.353c-1.423-.778-1.423-2.823 0-3.601l11.616-6.353c.344-.188.627-.471.816-.816l6.353-11.616c.778-1.424 2.823-1.424 3.601 0z" fill="#FF9100"></path><path d="m73.454 157.76 6.353 11.616c.188.344.471.627.816.816l11.616 6.353c1.423.778 1.423 2.823 0 3.601l-11.616 6.354c-.344.188-.627.471-.816.816l-6.353 11.616c-.778 1.423-2.823 1.423-3.601 0l-6.353-11.616c-.188-.344-.471-.627-.816-.816l-11.616-6.353c-1.423-.778-1.423-2.823 0-3.601l11.616-6.353c.344-.188.627-.471.816-.816l6.353-11.616c.778-1.424 2.823-1.424 3.601-.001z" fill="#FFC14F"></path><path d="m351 380h-16c8.284 0 15 6.716 15 15v10c0 8.284-6.716 15-15 15h16c8.284 0 15 6.716 15 15v10c0 8.284-6.716 15-15 15 8.284 0 15 6.716 15 15v10c0 .787-.061 1.559-.177 2.313-33.281 15.829-70.517 24.687-109.823 24.687s-76.542-8.858-109.823-24.688c-.116-.753-.177-1.525-.177-2.312v-10c0-8.284 6.716-15 15-15-8.284 0-15-6.716-15-15v-10c0-8.284 6.716-15 15-15h-16c-8.284 0-15-6.716-15-15v-10c0-8.284 6.716-15 15-15h16c-8.284 0-15-6.716-15-15v-10c0-8.284 6.716-15 15-15h190c8.284 0 15 6.716 15 15v10c0 8.284-6.716 15-15 15z" fill="#FF9100"></path><path d="m366 435v10c0 8.284-6.716 15-15 15h-190c-8.284 0-15-6.716-15-15v-10c0-8.284 6.716-15 15-15h190c8.284 0 15 6.716 15 15zm-15-95h-190c-8.284 0-15 6.716-15 15v10c0 8.284 6.716 15 15 15h190c8.284 0 15-6.716 15-15v-10c0-8.284-6.716-15-15-15zm-199.818-31.468c2.177 7.993 10.422 12.708 18.415 10.53l183.32-49.938c7.993-2.177 12.708-10.422 10.53-18.415l-2.628-9.648c-2.177-7.993-10.422-12.708-18.415-10.53l-183.32 49.938c-7.993 2.177-12.708 10.422-10.53 18.415zm275.56-156.877-40.915-11.287c-7.986-2.203-16.246 2.485-18.449 10.471l-2.659 9.64c-2.203 7.986 2.485 16.246 10.471 18.449l40.915 11.287c7.986 2.203 16.246-2.485 18.449-10.471l2.659-9.64c2.203-7.986-2.485-16.246-10.471-18.449z" fill="#FF9F22"></path><path d="m366 475v10c0 .787-.061 1.559-.177 2.313-10.348 4.922-21.079 9.17-32.136 12.688h-138.687c-8.284 0-15-6.716-15-15v-10c0-8.284 6.716-15 15-15-8.284 0-15-6.716-15-15v-10c0-8.284 6.716-15 15-15h-16c-8.284 0-15-6.716-15-15v-10c0-8.284 6.716-15 15-15h16c-8.284 0-15-6.716-15-15v-10c0-8.284 6.716-15 15-15h156c8.284 0 15 6.716 15 15v10c0 8.284-6.716 15-15 15h-16c8.284 0 15 6.716 15 15v10c0 8.284-6.716 15-15 15h16c8.284 0 15 6.716 15 15v10c0 8.284-6.716 15-15 15 8.284-.001 15 6.715 15 14.999z" fill="#FFB52D"></path><path d="m303 380h-60c-8.284 0-15-6.716-15-15v-10c0-8.284 6.716-15 15-15h60c8.284 0 15 6.716 15 15v10c0 8.284-6.716 15-15 15zm7 65v-10c0-8.284-6.716-15-15-15h-60c-8.284 0-15 6.716-15 15v10c0 8.284 6.716 15 15 15h60c8.284 0 15-6.716 15-15z" fill="#FFEA06"></path><path d="m335 420h-156c-8.284 0-15-6.716-15-15v-10c0-8.284 6.716-15 15-15h156c8.284 0 15 6.716 15 15v10c0 8.284-6.716 15-15 15zm16 40h-156c-8.284 0-15 6.716-15 15v10c0 8.284 6.716 15 15 15h138.687c11.057-3.517 21.788-7.765 32.136-12.688.117-.754.177-1.526.177-2.313v-10c0-8.283-6.716-14.999-15-14.999z" fill="#FFC14F"></path><path d="m203.5 360c0 4.142-3.358 7.5-7.5 7.5s-7.5-3.358-7.5-7.5 3.358-7.5 7.5-7.5 7.5 3.358 7.5 7.5zm142.5 7.5c4.142 0 7.5-3.358 7.5-7.5s-3.358-7.5-7.5-7.5-7.5 3.358-7.5 7.5 3.358 7.5 7.5 7.5zm-166 25c-4.142 0-7.5 3.358-7.5 7.5s3.358 7.5 7.5 7.5 7.5-3.358 7.5-7.5-3.358-7.5-7.5-7.5zm150 0c-4.142 0-7.5 3.358-7.5 7.5s3.358 7.5 7.5 7.5 7.5-3.358 7.5-7.5-3.358-7.5-7.5-7.5zm-134 40c-4.142 0-7.5 3.358-7.5 7.5s3.358 7.5 7.5 7.5 7.5-3.358 7.5-7.5-3.358-7.5-7.5-7.5zm150 0c-4.142 0-7.5 3.358-7.5 7.5s3.358 7.5 7.5 7.5 7.5-3.358 7.5-7.5-3.358-7.5-7.5-7.5zm-150 40c-4.142 0-7.5 3.358-7.5 7.5s3.358 7.5 7.5 7.5 7.5-3.358 7.5-7.5-3.358-7.5-7.5-7.5zm150 0c-4.142 0-7.5 3.358-7.5 7.5s3.358 7.5 7.5 7.5 7.5-3.358 7.5-7.5-3.358-7.5-7.5-7.5z" fill="#FF9F22"></path><path d="m352.917 269.125-150.515 41.002c-7.993 2.177-16.238-2.537-18.415-10.53l-2.628-9.648c-2.177-7.993 2.537-16.238 10.53-18.415l150.515-41.002c7.993-2.177 16.238 2.537 18.415 10.53l2.628 9.648c2.177 7.993-2.537 16.237-10.53 18.415zm121.371-78.419 2.659-9.64c2.203-7.986-2.485-16.246-10.471-18.449l-47.874-13.207c-7.986-2.203-16.246 2.485-18.449 10.471l-2.659 9.64c-2.203 7.986 2.485 16.246 10.471 18.449l47.874 13.207c7.986 2.203 16.246-2.485 18.449-10.471z" fill="#FFB52D"></path><path d="m279 420h-60c-8.284 0-15-6.716-15-15v-10c0-8.284 6.716-15 15-15h60c8.284 0 15 6.716 15 15v10c0 8.284-6.716 15-15 15zm31 65v-10c0-8.284-6.716-15-15-15h-60c-8.284 0-15 6.716-15 15v10c0 8.284 6.716 15 15 15h60c8.284 0 15-6.716 15-15zm5.324-221.181-2.628-9.648c-2.177-7.993-10.422-12.708-18.415-10.53l-59.089 16.096c-7.993 2.177-12.708 10.422-10.53 18.415l2.628 9.648c2.177 7.993 10.422 12.708 18.415 10.53l59.089-16.096c7.993-2.178 12.707-10.422 10.53-18.415zm182.3-92.609-40.461-11.162c-7.986-2.203-16.246 2.485-18.449 10.471l-2.659 9.64c-2.203 7.986 2.485 16.246 10.471 18.449l57.839 15.957c1.466.404 2.941.576 4.386.539-2.427-15.116-6.177-29.788-11.127-43.894z" fill="#FFF36C"></path><path d="m218.5 360c0-4.142 3.358-7.5 7.5-7.5s7.5 3.358 7.5 7.5-3.358 7.5-7.5 7.5-7.5-3.358-7.5-7.5zm37.5-7.5c-4.142 0-7.5 3.358-7.5 7.5s3.358 7.5 7.5 7.5 7.5-3.358 7.5-7.5-3.358-7.5-7.5-7.5zm30 0c-4.142 0-7.5 3.358-7.5 7.5s3.358 7.5 7.5 7.5 7.5-3.358 7.5-7.5-3.358-7.5-7.5-7.5zm30 0c-4.142 0-7.5 3.358-7.5 7.5s3.358 7.5 7.5 7.5 7.5-3.358 7.5-7.5-3.358-7.5-7.5-7.5zm-106 40c-4.142 0-7.5 3.358-7.5 7.5s3.358 7.5 7.5 7.5 7.5-3.358 7.5-7.5-3.358-7.5-7.5-7.5zm30 0c-4.142 0-7.5 3.358-7.5 7.5s3.358 7.5 7.5 7.5 7.5-3.358 7.5-7.5-3.358-7.5-7.5-7.5zm30 0c-4.142 0-7.5 3.358-7.5 7.5s3.358 7.5 7.5 7.5 7.5-3.358 7.5-7.5-3.358-7.5-7.5-7.5zm30 0c-4.142 0-7.5 3.358-7.5 7.5s3.358 7.5 7.5 7.5 7.5-3.358 7.5-7.5-3.358-7.5-7.5-7.5zm-74 40c-4.142 0-7.5 3.358-7.5 7.5s3.358 7.5 7.5 7.5 7.5-3.358 7.5-7.5-3.358-7.5-7.5-7.5zm30 0c-4.142 0-7.5 3.358-7.5 7.5s3.358 7.5 7.5 7.5 7.5-3.358 7.5-7.5-3.358-7.5-7.5-7.5zm30 0c-4.142 0-7.5 3.358-7.5 7.5s3.358 7.5 7.5 7.5 7.5-3.358 7.5-7.5-3.358-7.5-7.5-7.5zm30 0c-4.142 0-7.5 3.358-7.5 7.5s3.358 7.5 7.5 7.5 7.5-3.358 7.5-7.5-3.358-7.5-7.5-7.5zm-90 40c-4.142 0-7.5 3.358-7.5 7.5s3.358 7.5 7.5 7.5 7.5-3.358 7.5-7.5-3.358-7.5-7.5-7.5zm30 0c-4.142 0-7.5 3.358-7.5 7.5s3.358 7.5 7.5 7.5 7.5-3.358 7.5-7.5-3.358-7.5-7.5-7.5zm30 0c-4.142 0-7.5 3.358-7.5 7.5s3.358 7.5 7.5 7.5 7.5-3.358 7.5-7.5-3.358-7.5-7.5-7.5zm30 0c-4.142 0-7.5 3.358-7.5 7.5s3.358 7.5 7.5 7.5 7.5-3.358 7.5-7.5-3.358-7.5-7.5-7.5zm-86.974-182.582c3.997-1.089 6.354-5.211 5.265-9.208-1.089-3.996-5.211-6.354-9.208-5.265s-6.354 5.211-5.265 9.208c1.089 3.996 5.211 6.354 9.208 5.265zm28.945-7.885c3.997-1.089 6.354-5.211 5.265-9.208s-5.211-6.354-9.208-5.265-6.354 5.211-5.265 9.208 5.212 6.354 9.208 5.265zm28.946-7.885c3.996-1.089 6.354-5.211 5.265-9.208-1.089-3.996-5.211-6.354-9.208-5.265s-6.354 5.211-5.265 9.208 5.211 6.354 9.208 5.265zm28.945-7.885c3.996-1.089 6.354-5.211 5.265-9.208-1.089-3.996-5.211-6.354-9.208-5.265-3.996 1.089-6.354 5.211-5.265 9.208s5.211 6.354 9.208 5.265zm125.311-82.099c3.993 1.102 8.123-1.242 9.224-5.235 1.102-3.993-1.242-8.123-5.235-9.224-3.993-1.102-8.123 1.242-9.224 5.235-1.102 3.992 1.242 8.122 5.235 9.224zm23.685-1.247c-1.102 3.993 1.242 8.123 5.235 9.224 3.993 1.102 8.123-1.242 9.224-5.235s-1.242-8.123-5.235-9.224-8.123 1.242-9.224 5.235zm37.306 2.563c-3.717-.585-7.362 1.702-8.386 5.416-1.102 3.993 1.242 8.123 5.235 9.225 2.364.652 4.776.096 6.579-1.294-1.026-4.496-2.17-8.946-3.428-13.347z" fill="#FFC14F"></path><path d="m173.5 360c0 4.142-3.358 7.5-7.5 7.5s-7.5-3.358-7.5-7.5 3.358-7.5 7.5-7.5 7.5 3.358 7.5 7.5zm-23.5 32.5c-4.142 0-7.5 3.358-7.5 7.5s3.358 7.5 7.5 7.5 7.5-3.358 7.5-7.5-3.358-7.5-7.5-7.5zm16 40c-4.142 0-7.5 3.358-7.5 7.5s3.358 7.5 7.5 7.5 7.5-3.358 7.5-7.5-3.358-7.5-7.5-7.5zm0 40c-4.142 0-7.5 3.358-7.5 7.5s3.358 7.5 7.5 7.5 7.5-3.358 7.5-7.5-3.358-7.5-7.5-7.5zm1.193-181.285c-3.997 1.089-6.354 5.211-5.265 9.208s5.211 6.354 9.208 5.265 6.354-5.211 5.265-9.208c-1.089-3.996-5.212-6.353-9.208-5.265zm28.945-7.885c-3.997 1.089-6.354 5.211-5.265 9.208 1.089 3.996 5.211 6.354 9.208 5.265s6.354-5.211 5.265-9.208c-1.089-3.996-5.211-6.353-9.208-5.265zm144.727-39.424c-3.996 1.089-6.354 5.211-5.265 9.208s5.211 6.354 9.208 5.265c3.996-1.089 6.354-5.211 5.265-9.208s-5.212-6.354-9.208-5.265zm51.693-80.934c1.102-3.993-1.242-8.123-5.235-9.225s-8.123 1.242-9.224 5.235 1.242 8.123 5.235 9.225 8.123-1.242 9.224-5.235zm23.685-1.246c-3.993-1.102-8.123 1.242-9.224 5.235s1.242 8.123 5.235 9.225 8.123-1.242 9.224-5.235c1.102-3.994-1.242-8.124-5.235-9.225z" fill="#DD7D00"></path><path d="m311.841 197.187-6.698-20.093c-.352-1.056-1.181-1.885-2.237-2.237l-20.093-6.698c-3.225-1.075-3.225-5.637 0-6.712l20.093-6.698c1.056-.352 1.885-1.181 2.237-2.237l6.698-20.093c1.075-3.225 5.637-3.225 6.712 0l6.698 20.093c.352 1.056 1.181 1.885 2.237 2.237l20.093 6.698c3.225 1.075 3.225 5.637 0 6.712l-20.093 6.698c-1.056.352-1.885 1.181-2.237 2.237l-6.698 20.093c-1.075 3.226-5.637 3.226-6.712 0z" fill="#FFF5F5"></path></g></svg>