<svg xmlns:xlink="http://www.w3.org/1999/xlink" xmlns="http://www.w3.org/2000/svg" id="Capa_1" height="60" viewBox="0 0 512 512" width="60"><g fill="#017BFE"><path d="m512 256c0 141.385-114.615 256-256 256s-256-114.615-256-256 114.615-256 256-256 256 114.615 256 256z" fill="#2CB3CD"></path><path d="m465 256c0 115.428-93.572 209-209 209s-209-93.572-209-209 93.572-209 209-209 209 93.572 209 209z" fill="#44BFD7"></path><path d="m216.459 279.144c1.853 3.705.351 8.21-3.354 10.063-1.077.538-2.221.794-3.348.794-2.751 0-5.4-1.52-6.714-4.147l-70-140c-1.853-3.705-.351-8.21 3.354-10.063 3.706-1.851 8.209-.351 10.062 3.354zm-80.916 6.831c-3.84-1.563-8.211.295-9.768 4.135l-43.002 106.11 14.652 3.78 42.251-104.257c1.556-3.838-.295-8.212-4.133-9.768zm-108.086 0c-3.839 1.556-5.689 5.93-4.134 9.768l42.252 104.257 14.653-3.78-43.003-106.11c-1.556-3.84-5.927-5.698-9.768-4.135zm263.285-153.41c-4.109-.555-7.877 2.337-8.425 6.443l-20 150c-.547 4.105 2.337 7.878 6.443 8.426.336.045.67.066 1 .066 3.702 0 6.922-2.74 7.425-6.51l20-150c.547-4.104-2.337-7.877-6.443-8.425zm-61.058 6.444c-.548-4.106-4.316-6.998-8.425-6.443-4.106.548-6.99 4.32-6.443 8.426l20 150c.502 3.77 3.723 6.51 7.425 6.51.33 0 .664-.021 1-.066 4.106-.548 6.99-4.32 6.443-8.426zm145.919-3.219c-3.706-1.851-8.209-.351-10.062 3.354l-70 140c-1.853 3.705-.351 8.21 3.354 10.063 1.077.538 2.221.794 3.348.794 2.751 0 5.4-1.52 6.714-4.147l70-140c1.852-3.707.351-8.211-3.354-10.064z" fill="#269AB1"></path><path d="m288.933 453.454-11.616 6.353c-.344.188-.628.471-.816.816l-6.353 11.616c-.778 1.423-2.823 1.423-3.601 0l-6.353-11.616c-.188-.344-.471-.627-.816-.816l-11.616-6.353c-1.423-.779-1.423-2.823 0-3.601l11.616-6.353c.344-.188.627-.471.816-.816l6.353-11.616c.778-1.423 2.823-1.423 3.601 0l6.353 11.616c.188.344.471.628.816.816l11.616 6.353c1.423.778 1.423 2.823 0 3.601zm140-176.908-11.616-6.353c-.344-.188-.628-.471-.816-.816l-6.353-11.616c-.778-1.423-2.823-1.423-3.601 0l-6.353 11.616c-.188.344-.471.627-.816.816l-11.616 6.353c-1.423.778-1.423 2.823 0 3.601l11.616 6.353c.344.188.627.471.816.816l6.353 11.617c.778 1.423 2.823 1.423 3.601 0l6.353-11.617c.188-.344.471-.627.816-.816l11.616-6.353c1.423-.778 1.423-2.823 0-3.601z" fill="#6A61B4"></path><path d="m431.841 237.581-6.698-20.093c-.352-1.056-1.181-1.885-2.237-2.237l-20.093-6.698c-3.225-1.075-3.225-5.637 0-6.712l20.093-6.698c1.056-.352 1.885-1.181 2.237-2.237l6.698-20.093c1.075-3.225 5.637-3.225 6.712 0l6.698 20.093c.352 1.056 1.181 1.885 2.237 2.237l20.093 6.698c3.225 1.075 3.225 5.637 0 6.712l-20.093 6.698c-1.056.352-1.885 1.181-2.237 2.237l-6.698 20.093c-1.075 3.225-5.637 3.225-6.712 0z" fill="#FFF5F5"></path><path d="m185.995 271c-.915-3.021-1.407-6.226-1.407-9.546 0-24.458 25.738-40.365 47.614-29.427l25.312 12.656 13.718-13.718c12.848-12.848 33.68-12.848 46.528 0 11.305 11.305 12.249 27.804 5.066 40.036h-136.831z" fill="#D12898"></path><path d="m216.5 393.418h-30.279c-8.284 0-15-6.716-15-15v-103.224c0-8.284 6.716-15 15-15h30.279c8.284 0 15 6.716 15 15v103.225c0 8.284-6.716 14.999-15 14.999z" fill="#FFC7E7"></path><path d="m325.779 393.418h-51.612c-10.954-7.488-25.38-7.488-36.334 0h-24.333c-8.284 0-15-6.716-15-15v-103.224c0-8.284 6.716-15 15-15h112.279c8.284 0 15 6.716 15 15v103.225c0 8.284-6.715 14.999-15 14.999z" fill="#FFF5F5"></path><path d="m274.167 393.418h-36.334v-142.447c0-8.284 6.716-15 15-15h6.334c8.284 0 15 6.716 15 15z" fill="#FF50B5"></path><path d="m122.384 150c-.584-5.086-.884-10.258-.884-15.5 0-74.282 60.218-134.5 134.5-134.5s134.5 60.218 134.5 134.5c0 5.242-.3 10.414-.884 15.5z" fill="#FF2EA6"></path><path d="m172.055 150c-.367-5.086-.555-10.258-.555-15.5 0-74.282 37.832-134.5 84.5-134.5s84.5 60.218 84.5 134.5c0 5.242-.189 10.414-.555 15.5z" fill="#FF50B5"></path><path d="m231.661 150c-.106-5.086-.161-10.258-.161-15.5 0-74.282 10.969-134.5 24.5-134.5s24.5 60.218 24.5 134.5c0 5.242-.055 10.414-.161 15.5z" fill="#FF72C3"></path><path d="m394 155h-276c-5.523 0-10-4.477-10-10 0-5.523 4.477-10 10-10h276c5.523 0 10 4.477 10 10 0 5.523-4.477 10-10 10z" fill="#FF72C3"></path><path d="m342 155h-172c-5.523 0-10-4.477-10-10 0-5.523 4.477-10 10-10h172c5.523 0 10 4.477 10 10 0 5.523-4.477 10-10 10z" fill="#FF94D2"></path><path d="m292 155h-72c-5.523 0-10-4.477-10-10 0-5.523 4.477-10 10-10h72c5.523 0 10 4.477 10 10 0 5.523-4.477 10-10 10z" fill="#FFAEE0"></path><path d="m46.757 360.5c-.249-1.11-.381-2.264-.381-3.45 0-11.667 12.278-19.255 22.713-14.037l12.074 6.037 6.544-6.544c6.129-6.129 16.066-6.129 22.195 0 5.06 5.06 5.768 12.3 3.007 17.994z" fill="#FFB52D"></path><path d="m115.883 420h-25l-.363-.153c-6.569-2.775-13.992-2.719-20.52.153h-25c-8.284 0-15-6.716-15-15v-33.551c0-8.284 6.716-15 15-15h70.883c8.284 0 15 6.716 15 15v33.551c0 8.284-6.716 15-15 15z" fill="#51489A"></path><path d="m62.747 420h-17.747c-8.284 0-15-6.716-15-15v-33.551c0-8.284 6.716-15 15-15h17.747c-8.284 0-15 6.716-15 15v33.551c0 8.284 6.716 15 15 15z" fill="#453D83"></path><path d="m90.883 420h-20.883v-66.439c0-4.786 3.88-8.666 8.666-8.666h3.551c4.786 0 8.666 3.88 8.666 8.666z" fill="#FFF04A"></path><path d="m23.881 295c-.252-2.193-.381-4.423-.381-6.684 0-32.033 25.967-58 58-58s58 25.968 58 58c0 2.261-.129 4.491-.381 6.684z" fill="#FFC14F"></path><path d="m150 290c0 5.523-4.477 10-10 10h-120c-5.523 0-10-4.477-10-10s4.477-10 10-10h39.343c3.185-22.182 18.922-40.311 39.783-46.957 20.861 6.646 36.598 24.775 39.783 46.957h1.091c5.523 0 10 4.477 10 10z" fill="#FFF04A"></path><path d="m140 300h-83.623c-5.523 0-10-4.477-10-10 0-5.523 4.477-10 10-10h83.623c5.523 0 10 4.477 10 10 0 5.523-4.477 10-10 10z" fill="#FFF68E"></path><path d="m450.703 357.853-37.468 18.786c-8.102 3.079-17.167-.993-20.245-9.096-4.144-10.906 4.637-22.36 16.245-21.19l13.431 1.354 3.793-8.442c3.552-7.906 12.841-11.436 20.747-7.884 10.643 4.783 12.533 19.091 3.497 26.472z" fill="#FFF04A"></path><path d="m430.362 420.684-16.297 6.193c-7.744 2.943-16.407-.949-19.35-8.693l-11.918-31.363c-2.943-7.744.949-16.407 8.693-19.35l16.297-6.193c7.744-2.943 16.407.949 19.35 8.693l11.918 31.363c2.943 7.744-.949 16.407-8.693 19.35z" fill="#D12898"></path><path d="m480.324 401.698-23.369 8.88c-7.037-1.213-14.197 1.327-18.896 6.703l-.625.715-7.884 2.996c-7.744 2.943-16.407-.949-19.35-8.693l-11.918-31.363c-2.943-7.744.949-16.407 8.693-19.35l50.774-19.294c7.744-2.943 16.407.949 19.35 8.693l11.918 31.363c2.943 7.744-.949 16.407-8.693 19.35z" fill="#FF2EA6"></path><path d="m456.955 410.578-19.521 7.418-23.601-62.106c-1.7-4.474.549-9.479 5.022-11.179l3.319-1.261c4.474-1.7 9.479.549 11.179 5.022z" fill="#FFF79F"></path></g></svg>