<svg xmlns:xlink="http://www.w3.org/1999/xlink" xmlns="http://www.w3.org/2000/svg" id="Layer_1" data-name="Layer 1" viewBox="0 0 1864.4 931.86" width="250"  height="124.95440892512336" fill='#fff'><g><path d="M1890,840c-.64-3-2.24-3.78-5-2.73a16.6,16.6,0,0,0-4.21,2.56c-2.87,2.23-5.66,4.56-8.43,6.92a248.07,248.07,0,0,1-43.89,30.51c-32,17.12-66.52,25.46-102.47,28-11.81.84-23.66,1.42-35.61.65a171.16,171.16,0,0,1-50.67-10.7c-29.92-11.46-54.17-30.79-75-54.72-17.12-19.7-30.91-41.67-42.71-64.9-14.42-28.38-25.69-58-34.79-88.47a701.13,701.13,0,0,1-24-113.34c1.32-1.1,2.55-2.2,3.86-3.19,41.14-31.39,81.61-63.58,120-98.38,14.7-13.34,29.14-26.93,42-42.1,5.45-6.45,10.67-13.1,14.06-20.93,4.58-10.54,4.35-20.74-3.36-29.74a50.75,50.75,0,0,0-10.94-9.22c-10.7-6.93-22.83-10.2-35.09-13.15-3.87-.93-6,.24-8.35,3.05-21.28,25.1-43.25,49.58-66.59,72.78-13,12.95-26.19,25.75-39.71,38.16-17.55,16.11-36,31.18-56.07,44.09-5.52,3.55-11.27,6.74-17.85,10.64a57.1,57.1,0,0,1,.7-5.92c2.59-10.93,4.71-22,8-32.72,10.9-35.71,22.29-71.27,33.37-106.93,9.55-30.78,18.44-61.75,23.23-93.7,1.84-12.23,3.43-24.54,1.57-37a47.05,47.05,0,0,0-9.39-22.64c-8-10.17-19.07-15-31.3-17.64-12.91-2.79-26-2.54-38.94-.76-7,1-13.87,2.93-20.77,4.54a11.06,11.06,0,0,0-2.7,1.22c-2.59,13.4-4.67,26.12-7.54,38.66q-10.07,43.95-20.76,87.76c-8.15,33.56-16.65,67-24.85,100.57q-15.06,61.62-29.84,123.31c-10.42,43.7-20.35,87.51-28.52,131.7-1.29,7-3.57,13.3-7.81,19-2.18,2.91-4.07,6-6.19,9-8.51,11.85-17.66,23.13-29.21,32.24-5.64,4.44-11.72,8-18.82,9.64-7.76,1.77-12.34-.2-15.87-7.36A37,37,0,0,1,1176,749a218.41,218.41,0,0,1-3.27-24c-.66-10.36-1.55-20.9-.39-31.15,1.93-17.19,5.07-34.27,8.3-51.28,5.55-29.35,13.18-58.32,16.54-88.08,1.14-10.16,2.16-20.35.48-30.59-2.29-13.9-8.18-22.15-24-22.64-8.93-.28-17.88,0-26.82-.19-7.87-.18-15-2.52-20.32-8.71-2.59-3-4.92-6.22-7.46-9.27a24.21,24.21,0,0,0-15.47-9c-7.65-1.19-15.19-.33-22.69.61-20.22,2.52-39.24,9.06-57.26,18.45C995.28,508,971.12,528,950.55,552.46a268.46,268.46,0,0,0-52,96.2,260,260,0,0,0-10.77,55.82c-.44,5.92-.91,11.83-1.38,18-20.58,13.83-41.85,26.88-64.66,37.24-8,3.62-16.13,6.76-24.89,8.08-11.16,1.68-20.32-1.72-26.9-10.91a44.69,44.69,0,0,1-7.93-32,416,416,0,0,1,7.32-41.42q10.11-44.7,21.21-89.18c7-28.38,14.69-56.61,21.95-84.93.84-3.28,2.42-4.75,5.8-5.6,34.76-8.76,69.4-18,104.7-24.43a36.71,36.71,0,0,0,23.85-14.72c10.94-14.73,22-29.36,32.91-44.14a92.77,92.77,0,0,0,8.79-13.74c3.51-7.15,2.34-15.66-5.15-21.2-5.66-4.2-12.19-5.81-19-6.27-12.78-.85-25.45.91-37.91,3.15-26,4.68-51.85,10.11-77.77,15.22-2.67.53-5.36,1-8.5,1.52.22-1.62.27-2.57.48-3.48,7.3-31.88,14.68-63.74,21.9-95.63,6.23-27.54,12.3-55.12,18.39-82.7,1.11-5-.16-6.72-5.12-7.28a67.39,67.39,0,0,0-18.16.7C843.8,213,830.32,216.85,816.9,221c-11.82,3.67-22.9,8.71-32.11,17.15a138.23,138.23,0,0,0-21.72,25.08,99.55,99.55,0,0,0-14.49,31.86c-4.27,17.5-9,34.88-13.34,52.35q-9.21,37-18.1,74.15c-.59,2.44-1.85,3.51-4.13,4.28-10.34,3.49-20.59,7.2-30.9,10.77Q617.7,459,553.28,481.29c-8.59,3-17.2,5.89-25.75,9-4.13,1.49-4.88,2.83-3.7,6.7,6.43,21.2,14.69,41.53,29.82,58.21,9.64,10.62,21.36,16.63,36.23,13.6,8.56-1.75,17.18-3.39,25.59-5.74,24-6.73,47.39-15.58,70.59-24.77,1.89-.75,3.8-1.41,6.21-2.3-.23,1.56-.29,2.36-.46,3.14-6.35,28.53-12.94,57-19,85.61q-6.77,32-12.33,64.21c-3,17.06-5.37,34.23-7.48,51.41-1.69,13.78-2.31,27.64.57,41.43,5.82,27.83,22.32,45.92,49.54,53.94a119,119,0,0,0,44.07,4.36,282.57,282.57,0,0,0,51.16-8.84,273.53,273.53,0,0,0,93.78-46.13c1.11-.84,2.36-1.49,3.61-2.27,2.37,4.34,4.32,8.34,6.64,12.12,13.46,22,32.87,35.91,57.9,41.73,19.11,4.45,38.13,2.68,56.84-2.56,27.93-7.84,51.9-22.78,73.45-41.89,3.66-3.24,7.19-6.63,11.08-10.23.58,1.22.88,2,1.26,2.63,3.51,6.37,6.64,13,10.64,19,9.94,15.05,23,26.44,40.57,31.7,16.37,4.88,32.11,3.89,46.37-6.38,5.88-4.24,11.86-8.56,16.87-13.75,8.24-8.55,15.73-17.82,23.54-26.79,1-1.17,2-2.36,3-3.55a18.37,18.37,0,0,1,.87,6.09,120.62,120.62,0,0,0,.86,12.33c2,12.88,7.87,23.49,19.45,30.18,7.75,4.46,16.34,6.16,25.21,6.45,20,.64,39-4.16,57.27-12a130.3,130.3,0,0,0,12.65-6.77,5.68,5.68,0,0,0,3.23-5.16c.17-7.09.67-14.18.93-21.27.38-10.56.61-21.14,1-31.7.6-15.84,1.12-31.68,2-47.51.77-13.83,1.57-27.69,3.17-41.44,1.83-15.72,4.3-31.38,7-47,1.45-8.4,3.92-16.62,5.94-24.92a2.8,2.8,0,0,1,1.42,1.91c.35,2.45.58,4.91.94,7.35,4.56,31.06,10.27,61.89,18.55,92.21,10.59,38.73,24.54,76.13,44.17,111.25,17.3,30.94,38.3,59.05,64.78,82.87A258.24,258.24,0,0,0,1576.72,940c36.37,17.07,74.86,24.47,114.8,25.09a441.78,441.78,0,0,0,57.36-2.88c22.23-2.55,44.06-6.84,65.16-14.35,22.17-7.9,42.94-18.29,59.23-35.89,11.1-12,18-26,19-42.58a21.66,21.66,0,0,1,.85-3.65v-8.94c-.29-1.22-.65-2.44-.87-3.67C1891.51,848.72,1890.93,844.3,1890,840Zm-778.48-281c-.54,11.7-1.13,23.41-2.23,35.06-3.49,36.93-9.42,73.36-23.47,108-5.81,14.33-13.06,27.83-23.37,39.49-14.16,16-31.57,25.28-53.37,25.17-17.68-.08-28.7-10-31.09-27.58-1.63-12,0-23.73,2.61-35.34,6.6-28.81,19-55.21,34.08-80.46,12.5-21,27-40.44,44.56-57.44,9.43-9.11,19.69-17.15,31.7-22.72a52.25,52.25,0,0,1,20.63-5.07C1111.57,545.4,1111.83,552.17,1111.52,558.92Z" transform="translate(-28.75 -74.91)"/><path d="M253.44,1002.85a489.57,489.57,0,0,0,68.71-12.16c36.42-8.93,71.49-21.49,104.72-39,34.39-18.13,65.28-40.82,91-70.12a238.35,238.35,0,0,0,39.82-62.52c13.37-30.73,19.2-63.06,19.88-96.4a119.76,119.76,0,0,0-3.41-30.43C568,666.36,553.86,645,535.94,626c-16.74-17.8-36-32.62-56.23-46.19-27.24-18.26-56-33.92-85.16-48.82-22.38-11.44-45.11-22.21-67.49-33.65-25.17-12.88-50.29-25.86-75.1-39.4a356.17,356.17,0,0,1-57.6-38.63c-12.26-10.19-23.41-21.44-32-35-7.73-12.26-12.58-25.47-12.84-40.09a236.18,236.18,0,0,1,4.25-48.77c4.1-21.29,11.34-41.4,22.74-59.91,16.32-26.5,38.9-46.14,66.5-60.08,35.15-17.76,73-24.64,111.91-26.81,8.92-.49,17.87-.37,26.8-.36a158.68,158.68,0,0,1,45,6.35c22.13,6.5,41.18,17.81,55.21,36.6a92.66,92.66,0,0,1,18.34,49c1,12.73-3.34,24.47-9.34,35.49-10.49,19.25-25,35.32-41,50-5.83,5.34-11.91,10.41-18.24,15.92.91,2,1.69,4.17,2.81,6.13,5.16,9,13.35,14.15,22.86,17.19,23.36,7.47,47,6.95,70.35.47,31.54-8.74,53.9-28.48,67.48-58.24a146.93,146.93,0,0,0,11.73-42.34c2.33-17.78,2.86-35.51-.06-53.29-5.32-32.43-21.46-58.58-46-79.9-17.55-15.25-37.58-26.35-59.11-34.82C464.24,82.11,425.11,75.79,385,75c-14.36-.29-28.75.45-43.12,1-10.21.4-20.42,1.19-30.62,2a482.24,482.24,0,0,0-63.15,9.23c-29.54,6.22-58.2,15.19-85.41,28.38-26.4,12.8-50.27,29.16-70.74,50.39A213.57,213.57,0,0,0,51.35,226c-15.93,34.91-21.27,72-22.57,109.87-.17,4.76.61,9.54.74,14.31a143.61,143.61,0,0,0,5.41,34.17C42.78,412.9,58,437.23,78,458.71c20.19,21.7,43.64,39.43,68.6,55.25,33.31,21.11,68.54,38.6,104.07,55.58,33,15.76,65.89,31.59,98.6,47.86a358.42,358.42,0,0,1,50.53,30.4c13.85,10,26.93,20.86,37.1,34.78,8.94,12.25,15.19,25.61,15.92,41a171,171,0,0,1-6.57,54.86c-9.56,33.85-28.73,61.44-55.28,84.12-20.57,17.56-43.81,30.69-68.76,40.93a322.48,322.48,0,0,1-74.8,20.7c-14.89,2.25-29.86,3.63-44.9,1.35-20.72-3.15-38.5-11.85-51.83-28.34-9.5-11.74-15.45-25.05-14.72-40.55a208.05,208.05,0,0,1,2-22.16c5.16-33,19.64-61.51,43-85.34C199.87,730,222,715.72,246.63,705.34c5-2.1,10.11-4,15.63-6.09-.4-2.94-.64-5.88-1.2-8.76-4.71-24.15-26.8-42.15-51.38-42.08a215.78,215.78,0,0,0-41.37,3.66q-57.15,11.29-92.71,57.42c-17.71,23-28.91,49.23-36,77.24a305.77,305.77,0,0,0-8.83,66.62c-.45,16.62.72,33,4.87,49.11,7.33,28.4,21.87,52.24,45,70.63s49.78,27.59,78.56,31.73c4.15.6,8.29,1.3,12.43,1.95h43.71a10.78,10.78,0,0,1,2.59-.9C229.78,1004.84,241.63,1004,253.44,1002.85Z" transform="translate(-28.75 -74.91)"/><path d="M1877.79,507.31a92,92,0,0,0-10.27-10.06c-28.44-22.5-61.11-29.39-96.5-25.31-19.6,2.27-37.87,9.12-55.37,17.94a253.8,253.8,0,0,0-59.33,42,263.94,263.94,0,0,0-47.5,58.88c-21.14,36-32,74.42-27.7,116.54,2.13,20.78,7.2,40.61,16.83,59.2,16.54,31.94,42.24,52.86,76.54,63.26,12,3.65,24.43,5.42,37,6.39a181.48,181.48,0,0,0,42.45-1.79c27.94-4.41,53.81-14.6,78-29.16a200.44,200.44,0,0,0,40.12-31.42c9.58-9.78,11.8-20.71,6.24-33.1a76.44,76.44,0,0,0-6.56-11.63,50.39,50.39,0,0,0-16.3-15.69c-4-2.34-4.89-2.17-8.16,1-4.51,4.37-9,8.76-13.59,13.06-11,10.36-23,19.46-36.81,25.79-23.26,10.66-47.6,14.67-72.89,10.29-14.65-2.55-25.76-10.77-32.47-24.36-6.1-12.36-7.42-25.59-6.77-39.11.17-3.7,1-7.37,1.51-11.39,4.53.37,8.45,1,12.36.95,9.91,0,19.83-.22,29.73-.63a213.2,213.2,0,0,0,62.53-12c24.86-8.75,46.93-21.9,64.74-41.71,26.9-29.9,36.6-65.08,32.23-104.56C1886.89,521.9,1883.83,513.87,1877.79,507.31Zm-75.14,88.07c-12.56,20.12-28.3,37-49.11,48.71a101.65,101.65,0,0,1-42.72,13.29c-4.56.35-9.13.56-14.39.88a115.2,115.2,0,0,1,7.24-27.82,262.58,262.58,0,0,1,47.5-78.52c9.84-11.24,20.87-21.22,34-28.5,7.43-4.11,15.27-7.16,23.93-7.3,4.9-.08,7.88,1.89,9.41,6.44a27.58,27.58,0,0,1,1.32,7.27C1821.17,553.52,1815.18,575.28,1802.65,595.38Z" transform="translate(-28.75 -74.91)"/></g></svg>